<?xml version="1.0" encoding="UTF-8" standalone="no"?>
<!-- Created with Inkscape (http://www.inkscape.org/) -->

<svg
   width="597.80145"
   height="1079.7567"
   viewBox="0 0 158.1683 285.68563"
   version="1.1"
   id="svg5"
   xml:space="preserve"
   inkscape:version="1.2 (dc2aeda, 2022-05-15)"
   sodipodi:docname="orbital_icons.svg"
   xmlns:inkscape="http://www.inkscape.org/namespaces/inkscape"
   xmlns:sodipodi="http://sodipodi.sourceforge.net/DTD/sodipodi-0.dtd"
   xmlns="http://www.w3.org/2000/svg"
   xmlns:svg="http://www.w3.org/2000/svg"><sodipodi:namedview
     id="namedview7"
     pagecolor="#505050"
     bordercolor="#eeeeee"
     borderopacity="1"
     inkscape:showpageshadow="false"
     inkscape:pageopacity="0"
     inkscape:pagecheckerboard="false"
     inkscape:deskcolor="#505050"
     inkscape:document-units="px"
     showgrid="false"
     shape-rendering="auto"
     borderlayer="true"
     inkscape:zoom="0.44114583"
     inkscape:cx="-361.55844"
     inkscape:cy="539.50413"
     inkscape:window-width="1366"
     inkscape:window-height="703"
     inkscape:window-x="0"
     inkscape:window-y="0"
     inkscape:window-maximized="1"
     inkscape:current-layer="layer1"
     inkscape:lockguides="false"><inkscape:grid
       type="xygrid"
       id="grid42862"
       originx="-349.83171"
       originy="-0.04146192" /></sodipodi:namedview><defs
     id="defs2"><linearGradient
       id="linearGradient2254"
       inkscape:swatch="solid"><stop
         style="stop-color:#666666;stop-opacity:1;"
         offset="0"
         id="stop2252" /></linearGradient><mask
       maskUnits="userSpaceOnUse"
       id="mask42585"><g
         inkscape:label="Clip"
         id="use42587"><path
           style="opacity:1;fill:#007acc;fill-opacity:1;fill-rule:nonzero;stroke:#464646;stroke-width:0.705644;stroke-linecap:butt;stroke-linejoin:miter;stroke-dasharray:none;stroke-opacity:1;paint-order:normal"
           id="path42604"
           sodipodi:type="arc"
           sodipodi:cx="173.77536"
           sodipodi:cy="116.98255"
           sodipodi:rx="68.12709"
           sodipodi:ry="36.022305"
           sodipodi:start="1.5788345"
           sodipodi:end="4.708655"
           sodipodi:arc-type="arc"
           d="M 173.22775,153.00369 A 68.12709,36.022305 0 0 1 105.64843,116.90503 68.12709,36.022305 0 0 1 173.52098,80.960498"
           sodipodi:open="true" /></g></mask></defs><g
     inkscape:label="Layer 1"
     inkscape:groupmode="layer"
     id="layer1"
     transform="translate(-349.83171,-0.04146192)"><path
       style="display:inline;opacity:1;fill:none;fill-opacity:1;fill-rule:nonzero;stroke:#464640;stroke-width:0.793763;stroke-linecap:butt;stroke-linejoin:miter;stroke-dasharray:none;stroke-opacity:1"
       id="path2172"
       sodipodi:type="arc"
       sodipodi:cx="508.56021"
       sodipodi:cy="145.61565"
       sodipodi:rx="78.979675"
       sodipodi:ry="78.979675"
       sodipodi:start="1.5788345"
       sodipodi:end="4.708655"
       sodipodi:arc-type="arc"
       d="M 507.92537,224.59277 A 78.979675,78.979675 0 0 1 429.58072,145.44567 78.979675,78.979675 0 0 1 508.2653,66.636522"
       inkscape:label="Arco 3"
       inkscape:transform-center-x="10.810882"
       inkscape:transform-center-y="1.0510685"
       sodipodi:open="true" /><path
       style="display:inline;fill:none;fill-opacity:1;fill-rule:nonzero;stroke:#464646;stroke-width:0.793756;stroke-dasharray:none;stroke-opacity:1"
       id="path2172-3"
       sodipodi:type="arc"
       sodipodi:cx="507.72742"
       sodipodi:cy="143.33676"
       sodipodi:rx="118.66796"
       sodipodi:ry="118.66796"
       sodipodi:start="1.5788345"
       sodipodi:end="4.708655"
       sodipodi:arc-type="arc"
       d="M 506.77355,262.00089 A 118.66796,118.66796 0 0 1 389.05973,143.08138 118.66796,118.66796 0 0 1 507.28431,24.669628"
       inkscape:label="Arco 2"
       sodipodi:open="true" /><path
       style="display:inline;fill:none;fill-opacity:1;fill-rule:nonzero;stroke:#464646;stroke-width:0.793755;stroke-dasharray:none;stroke-opacity:1"
       id="path2172-6"
       sodipodi:type="arc"
       sodipodi:cx="509.02472"
       sodipodi:cy="143.46703"
       sodipodi:rx="158.392"
       sodipodi:ry="158.392"
       sodipodi:start="2.0250125"
       sodipodi:end="4.2635558"
       sodipodi:arc-type="arc"
       d="M 439.52895,285.7989 A 158.392,158.392 0 0 1 350.63329,143.04071 158.392,158.392 0 0 1 440.29612,0.76311886"
       inkscape:label="Arco 1"
       sodipodi:open="true" /><path
       d="m 455.85497,95.466385 -7.39343,-7.392704 c -0.42615,-0.425445 -1.11617,-0.425445 -1.54374,0 l -1.53173,1.534563 1.9473,1.947301 c 0.45509,-0.1517 0.97295,-0.0494 1.33278,0.31114 0.36405,0.36336 0.46424,0.88758 0.30904,1.34054 l 1.87534,1.87675 c 0.45506,-0.15733 0.9786,-0.055 1.34054,0.30692 0.50868,0.50799 0.50868,1.32925 0,1.83724 -0.5073,0.50729 -1.32713,0.50729 -1.83443,0 -0.38029,-0.3817 -0.47554,-0.94332 -0.28504,-1.40827 l -1.75611,-1.74693 v 4.60368 c 0.12427,0.0608 0.24133,0.1432 0.34432,0.2456 0.50306,0.50869 0.50306,1.328535 0,1.834395 -0.5073,0.50871 -1.33278,0.50871 -1.84078,0 -0.5073,-0.50727 -0.5073,-1.325705 0,-1.832985 0.12827,-0.12693 0.27304,-0.22293 0.42685,-0.28647 v -4.64884 c -0.15306,-0.0642 -0.29914,-0.15663 -0.42333,-0.28292 -0.38453,-0.38452 -0.47695,-0.94684 -0.27938,-1.41744 l -1.91344,-1.92261 -5.07007,5.06652 c -0.42332,0.42686 -0.42332,1.11759 0,1.54444 l 7.39412,7.392015 c 0.42615,0.42613 1.1162,0.42613 1.54232,0 l 7.35887,-7.358855 c 0.42684,-0.42544 0.42684,-1.11617 0,-1.54303"
       id="path11797"
       style="display:inline;fill:#f05032;fill-opacity:1;stroke-width:0.705545"
       inkscape:label="Git" /><path
       d="m 353.82789,192.38966 h 14.81667 l -1.34763,15.21389 -6.07693,1.71944 -6.04238,-1.72013 z m 4.96075,6.87917 -0.16374,-1.9177 7.09718,0.002 0.1624,-1.84997 -9.2964,-0.002 0.49248,5.65152 h 6.4389 l -0.23013,2.41723 -2.05317,0.56725 -2.08491,-0.57149 -0.13253,-1.48872 h -1.8408 l 0.2328,2.94288 3.82552,1.02304 3.7952,-1.01811 0.52493,-5.75522 h -6.76771 z"
       id="path13271"
       style="display:inline;fill:#e34f26;fill-opacity:1;stroke-width:0.705555"
       inkscape:label="HTML5" /><path
       d="m 397.01434,147.16194 -5.82363,-12.36716 c -0.14613,-0.30917 -0.45085,-0.51314 -0.79629,-0.53205 -0.3544,-0.0213 -0.67189,0.1504 -0.85103,0.44117 l -6.31611,10.23009 c -0.19573,0.31877 -0.19173,0.71197 0.0107,1.02693 l 3.08742,4.78267 c 0.184,0.28547 0.50285,0.4507 0.83419,0.4507 0.0939,0 0.18853,-0.0133 0.2813,-0.0408 l 8.96186,-2.65063 c 0.27453,-0.0813 0.49898,-0.27544 0.61645,-0.53291 0.11733,-0.25732 0.1152,-0.55229 -0.005,-0.80813 z m -1.30391,0.53049 -7.60397,2.24895 c -0.23227,0.0688 -0.45493,-0.13226 -0.40611,-0.36646 l 2.71645,-13.00939 c 0.0507,-0.2432 0.38706,-0.28194 0.49319,-0.0565 l 5.02974,10.68064 c 0.0949,0.20161 -0.0133,0.43915 -0.22933,0.50293 z"
       id="path14008"
       style="display:inline;fill:#2d3748;fill-opacity:1;stroke-width:0.705552"
       inkscape:label="Prisma" /><path
       d="m 478.4975,257.02518 a 1.5776224,1.5776224 0 0 1 -1.57691,1.57763 1.5776224,1.5776224 0 0 1 -1.57762,-1.57763 1.5776224,1.5776224 0 0 1 1.57694,-1.57763 1.5776224,1.5776224 0 0 1 1.57759,1.57763 z m 1.86832,-7.5424 c -0.94968,0 -2.19215,0.67733 -3.44874,1.84997 -1.25589,-1.16629 -2.4991,-1.83586 -3.44806,-1.83586 -0.28927,0 -0.55245,0.0656 -0.78035,0.19627 -0.97012,0.55949 -1.18743,2.30293 -0.6865,4.49084 -2.14771,0.66323 -3.54472,1.72369 -3.54472,2.84129 0,1.12184 1.40406,2.18509 3.55813,2.84339 -0.49671,2.19639 -0.27517,3.94264 0.6971,4.50143 0.22586,0.132 0.48682,0.19414 0.77752,0.19414 0.94896,0 2.19216,-0.67733 3.44874,-1.85139 1.2559,1.16699 2.49907,1.83657 3.44806,1.83657 0.28928,0 0.55246,-0.0635 0.78034,-0.19415 0.96944,-0.55879 1.18745,-2.30221 0.68652,-4.49084 2.13994,-0.65758 3.53692,-1.72014 3.53692,-2.83915 0,-1.12184 -1.40405,-2.18513 -3.5581,-2.8448 0.49672,-2.1943 0.27517,-3.94195 -0.6971,-4.50144 -0.22426,-0.12987 -0.48541,-0.19547 -0.77045,-0.19627 z m -0.003,0.76907 v 0.005 c 0.15867,0 0.28646,0.0309 0.39371,0.0896 0.4699,0.26952 0.67381,1.29469 0.51504,2.61336 -0.0381,0.32456 -0.10026,0.66678 -0.17627,1.016 -0.67732,-0.1664 -1.41536,-0.29422 -2.19216,-0.37674 -0.46568,-0.63854 -0.94898,-1.21851 -1.43581,-1.72651 1.12322,-1.04421 2.17805,-1.61713 2.8963,-1.61926 z m -6.89328,0.0134 c 0.71403,0 1.77376,0.57007 2.89984,1.60867 -0.48403,0.508 -0.96661,1.08442 -1.42523,1.72295 -0.78107,0.0827 -1.51976,0.21041 -2.1964,0.3796 -0.0789,-0.34573 -0.13759,-0.68015 -0.17919,-1.00189 -0.1624,-1.31797 0.0381,-2.34245 0.50376,-2.6155 0.13414,-0.0635 0.28221,-0.0896 0.39722,-0.0931 z m 3.44451,2.15195 c 0.32104,0.33018 0.64208,0.69991 0.95957,1.10349 -0.31046,-0.0134 -0.62794,-0.024 -0.94899,-0.024 -0.32453,0 -0.64557,0.008 -0.95955,0.024 0.31046,-0.40358 0.63147,-0.77331 0.94897,-1.10422 z m 0.0107,1.85276 c 0.52213,0 1.0421,0.024 1.55365,0.0656 0.28646,0.41064 0.56584,0.84877 0.83467,1.31235 0.2624,0.45154 0.50093,0.91016 0.71824,1.37302 -0.21734,0.46213 -0.45579,0.92426 -0.71472,1.37581 -0.26811,0.46568 -0.54538,0.90877 -0.83256,1.31938 -0.51363,0.0445 -1.03435,0.069 -1.55928,0.069 -0.52211,0 -1.0421,-0.0239 -1.55362,-0.0656 -0.28646,-0.41064 -0.56584,-0.84949 -0.83467,-1.31235 -0.2624,-0.45154 -0.50096,-0.91015 -0.71827,-1.37301 0.21386,-0.46355 0.45579,-0.9264 0.71475,-1.37864 0.26811,-0.46568 0.54538,-0.90736 0.83253,-1.318 0.51365,-0.0451 1.03434,-0.0691 1.55928,-0.0691 z m -2.56469,0.17921 c -0.16934,0.26613 -0.33867,0.53834 -0.4967,0.81845 -0.15866,0.27514 -0.30693,0.55173 -0.44802,0.82832 -0.18693,-0.46286 -0.34573,-0.9243 -0.47696,-1.37373 0.45155,-0.10587 0.92779,-0.19973 1.42169,-0.27235 z m 5.12234,0 c 0.49035,0.0725 0.96307,0.1624 1.41534,0.27304 -0.12694,0.44592 -0.28573,0.90453 -0.46564,1.36384 -0.14108,-0.27518 -0.28929,-0.55246 -0.45158,-0.82832 -0.15867,-0.27659 -0.32808,-0.54611 -0.49742,-0.80856 z m 2.16112,0.47624 c 0.3415,0.10586 0.66603,0.22373 0.97014,0.35138 1.22203,0.52211 2.01224,1.20507 2.01224,1.74694 -0.003,0.54186 -0.79377,1.22768 -2.01576,1.74626 -0.29634,0.12694 -0.6209,0.24134 -0.95603,0.34785 -0.1976,-0.67592 -0.45582,-1.38009 -0.77613,-2.10257 0.31752,-0.71754 0.57152,-1.41816 0.76554,-2.09128 z m -9.45093,0.003 c 0.19626,0.67733 0.45509,1.38078 0.7761,2.10257 -0.31749,0.71754 -0.5729,1.41815 -0.7662,2.09125 -0.3415,-0.10587 -0.66606,-0.22427 -0.96662,-0.35277 -1.22203,-0.52001 -2.01224,-1.20369 -2.01224,-1.74555 0,-0.54187 0.79021,-1.22907 2.01224,-1.74694 0.29632,-0.12693 0.62088,-0.24133 0.95672,-0.34856 z m 8.23951,3.01979 c 0.18691,0.46355 0.3457,0.92568 0.47694,1.37442 -0.45157,0.11067 -0.92853,0.20454 -1.42239,0.27518 0.16933,-0.26453 0.33866,-0.53766 0.49741,-0.81704 0.15867,-0.27517 0.3069,-0.55597 0.44871,-0.83256 z m -7.01676,0.0134 c 0.14108,0.27659 0.28929,0.55245 0.45155,0.82901 0.1624,0.27518 0.32808,0.5447 0.49741,0.80646 -0.49034,-0.072 -0.96309,-0.1624 -1.41533,-0.27235 0.12694,-0.44448 0.28645,-0.9045 0.46566,-1.36384 z m 7.68633,2.10749 c 0.0789,0.34785 0.14107,0.68299 0.1792,1.00401 0.16239,1.31797 -0.0381,2.34245 -0.50377,2.61621 -0.10373,0.0635 -0.23839,0.0904 -0.39722,0.0904 -0.71403,0 -1.77376,-0.56936 -2.89984,-1.60867 0.484,-0.508 0.96661,-1.08373 1.42523,-1.72155 0.78103,-0.0832 1.51975,-0.21173 2.1964,-0.38098 z m -8.34672,0.008 c 0.67733,0.16506 1.41533,0.29279 2.19215,0.37535 0.46565,0.63851 0.94897,1.21849 1.43579,1.72577 -1.12536,1.04634 -2.18157,1.61925 -2.89981,1.61925 -0.1552,-0.003 -0.28645,-0.0352 -0.39019,-0.0931 -0.4699,-0.2681 -0.67381,-1.294 -0.51504,-2.61266 0.0381,-0.32457 0.10027,-0.66606 0.17627,-1.01459 z m 3.21733,0.45154 c 0.31042,0.0134 0.62794,0.024 0.94896,0.024 0.32455,0 0.64558,-0.008 0.95954,-0.024 -0.31042,0.40357 -0.63146,0.77258 -0.94895,1.10419 -0.32104,-0.33161 -0.64207,-0.70062 -0.95955,-1.10419 z"
       id="path14745"
       style="display:inline;fill:#61dafb;fill-opacity:1;stroke-width:0.705644;stroke-dasharray:none"
       inkscape:label="React" /><path
       d="m 447.70865,183.92299 c 4.67572,0 8.46665,3.79093 8.46665,8.46667 0,4.6757 -3.79093,8.46667 -8.46665,8.46667 -4.6757,0 -8.46667,-3.79097 -8.46667,-8.46667 0,-4.67574 3.79095,-8.46667 8.46667,-8.46667 z m -1.68275,11.28747 c 0.12346,0.45509 0.11013,0.88053 -0.016,1.26434 l -0.0459,0.12694 c -0.016,0.0429 -0.0368,0.0848 -0.0549,0.12426 -0.0987,0.20454 -0.23011,0.3951 -0.39158,0.57151 -0.49249,0.53552 -1.1797,0.73872 -1.47461,0.56797 -0.3175,-0.1848 -0.15948,-0.94193 0.41205,-1.54518 0.61452,-0.64771 1.49578,-1.0647 1.49578,-1.0647 v -0.002 z m 6.99278,-7.66304 c -0.38243,-1.50496 -2.87657,-1.99955 -5.23666,-1.16064 -1.40336,0.49882 -2.92381,1.28269 -4.01671,2.30506 -1.30034,1.21424 -1.50707,2.27259 -1.4217,2.71496 0.30128,1.56 2.43912,2.58022 3.31823,3.33728 v 0.005 c -0.25893,0.12693 -2.15618,1.0788 -2.60069,2.06373 -0.47625,1.03718 0.0741,1.77873 0.43391,1.87326 1.11126,0.30763 2.25427,-0.25413 2.86809,-1.16344 0.59267,-0.88971 0.54045,-2.03273 0.28504,-2.59363 0.34997,-0.0952 0.76199,-0.1376 1.29117,-0.0733 1.48238,0.16934 1.77872,1.10067 1.7145,1.48168 -0.0635,0.3803 -0.36901,0.60254 -0.47554,0.66603 -0.10587,0.0643 -0.1376,0.0848 -0.12774,0.12773 0.0107,0.0635 0.0643,0.0635 0.14827,0.0528 0.11653,-0.0213 0.77331,-0.31752 0.80504,-1.03789 0.0317,-0.91016 -0.83677,-1.92544 -2.38125,-1.90499 -0.63499,0.0107 -1.03787,0.0643 -1.32291,0.18054 -0.0213,-0.0317 -0.0429,-0.0528 -0.0741,-0.0741 -0.95252,-1.02658 -2.71992,-1.74624 -2.64585,-3.11149 0.0213,-0.49741 0.20106,-1.80904 3.38666,-3.39656 2.61408,-1.30245 4.69971,-0.94189 5.05955,-0.14827 0.51718,1.13171 -1.11195,3.23851 -3.83187,3.54472 -1.03716,0.11627 -1.57692,-0.28504 -1.71521,-0.43392 -0.14747,-0.15866 -0.16854,-0.16933 -0.22161,-0.1368 -0.0845,0.0424 -0.0317,0.18 0,0.26454 0.0845,0.21173 0.41274,0.58208 0.98494,0.77258 0.49672,0.15867 1.71451,0.25334 3.175,-0.31749 1.63971,-0.63432 2.9203,-2.40243 2.54988,-3.88411 z"
       id="path15482"
       style="display:inline;fill:#cc6699;fill-opacity:1;stroke-width:0.705555"
       inkscape:label="Sass" /><path
       d="m 469.2512,19.851786 c -0.43957,0 -0.79375,0.35419 -0.79375,0.79373 v 15.34585 c 0,0.43957 0.35418,0.79375 0.79375,0.79375 h 15.34585 c 0.43954,0 0.79373,-0.35418 0.79373,-0.79375 v -15.34585 c 0,-0.43954 -0.35419,-0.79373 -0.79373,-0.79373 z m 12.25056,6.87915 c 0.43183,0 0.81423,0.0267 1.14795,0.0785 a 4.5014445,4.5014445 0 0 1 0.92145,0.24 v 1.73427 a 2.7869446,2.7869446 0 0 0 -0.45366,-0.25468 3.5933944,3.5933944 0 0 0 -0.50589,-0.18346 3.8473944,3.8473944 0 0 0 -1.00613,-0.14106 c -0.21173,0 -0.40427,0.0187 -0.57785,0.0608 a 1.4816667,1.4816666 0 0 0 -0.43957,0.17066 c -0.12,0.0734 -0.21174,0.1616 -0.27728,0.264 a 0.62653333,0.62653333 0 0 0 -0.0987,0.34573 c 0,0.13841 0.0373,0.26321 0.1101,0.37323 0.0734,0.1101 0.17787,0.2144 0.31257,0.31328 0.13466,0.0987 0.29845,0.19467 0.49106,0.28928 0.19253,0.0952 0.41062,0.19334 0.65333,0.2935 0.33164,0.13893 0.62937,0.28717 0.89323,0.44309 0.264,0.15653 0.49038,0.33373 0.67946,0.53127 0.18908,0.1968 0.33303,0.42193 0.43321,0.67524 0.10027,0.25333 0.15094,0.54752 0.15094,0.88405 0,0.46354 -0.0883,0.85373 -0.26321,1.16839 a 2.13995,2.13995 0 0 1 -0.71403,0.76553 3.0903334,3.0903334 0 0 1 -1.04915,0.42054 c -0.39932,0.0848 -0.82055,0.12693 -1.26293,0.12693 a 6.9962888,6.9962888 0 0 1 -1.29824,-0.11579 3.9116,3.9116 0 0 1 -1.0668,-0.34784 v -1.85561 a 3.5510611,3.5510611 0 0 0 2.2839,0.84667 c 0.23493,0 0.44026,-0.0213 0.61522,-0.0635 0.17574,-0.0424 0.32174,-0.10157 0.43957,-0.17627 0.1171,-0.0763 0.20454,-0.16506 0.26321,-0.26812 a 0.72178334,0.72178334 0 0 0 -0.0523,-0.76836 1.4957778,1.4957778 0 0 0 -0.37888,-0.35277 3.9489944,3.9489944 0 0 0 -0.56938,-0.31326 19.558001,19.557999 0 0 0 -0.71049,-0.30762 c -0.6477,-0.27024 -1.13032,-0.60114 -1.44851,-0.9913 -0.31751,-0.39017 -0.47695,-0.86219 -0.47695,-1.41464 0,-0.43321 0.0866,-0.80505 0.26027,-1.1162 0.17359,-0.31114 0.40922,-0.56727 0.70837,-0.76834 a 3.1707667,3.1707667 0 0 1 1.03717,-0.44378 5.3170667,5.3170667 0 0 1 1.24883,-0.14187 z m -10.66306,0.1328 h 6.74722 v 1.52821 h -2.42146 v 6.80578 h -1.91699 v -6.80578 h -2.40877 z"
       id="path16219"
       style="display:inline;fill:#3178c6;fill-opacity:1;stroke-width:0.705555"
       inkscape:label="TypeScript" /><path
       d="m 416.86042,257.92327 -3.4854,-1.6771 a 1.0540845,1.0540845 0 0 0 -1.20293,0.20453 l -6.67446,6.08887 -2.90685,-2.20695 a 0.70483967,0.70483967 0 0 0 -0.90028,0.0403 l -0.93273,0.84807 a 0.7055452,0.7055452 0 0 0 -7.2e-4,1.0435 l 2.52093,2.30007 -2.52093,2.30008 a 0.7055452,0.7055452 0 0 0 7.2e-4,1.0435 l 0.93343,0.84738 a 0.70483967,0.70483967 0 0 0 0.90028,0.0403 l 2.90683,-2.20696 6.67446,6.08887 a 1.0526734,1.0526734 0 0 0 1.20225,0.20453 l 3.48681,-1.67707 a 1.0583178,1.0583178 0 0 0 0.59831,-0.95391 v -11.3741 a 1.0583178,1.0583178 0 0 0 -0.59972,-0.95388 z m -3.63072,10.4851 -5.06441,-3.84381 5.06441,-3.84381 z"
       id="path16956"
       style="display:inline;fill:#007acc;fill-opacity:1;stroke-width:0.705544"
       inkscape:label="VisualStudioCode" /><path
       d="m 361.33193,81.72753 c 3.32872,0 6.02712,2.6984 6.02712,6.02715 0,3.328664 -2.6984,6.027064 -6.02712,6.027064 -3.32869,0 -6.02707,-2.6984 -6.02707,-6.027064 0,-0.81352 0.16107,-1.58942 0.45331,-2.29744 0.42659,0.58088 1.11451,0.95808 1.89053,0.95808 1.29448,0 2.34387,-1.04944 2.34387,-2.34392 0,-0.77606 -0.37712,-1.46398 -0.95808,-1.89056 0.70811,-0.29208 1.48392,-0.45331 2.29744,-0.45331 z m -0.0957,-2.4396 c -4.676,0 -8.46667,3.79067 -8.46667,8.46667 0,4.676004 3.79067,8.466664 8.46667,8.466664 4.676,0 8.46666,-3.79066 8.46666,-8.466664 0,-4.676 -3.79066,-8.46667 -8.46666,-8.46667 z m 0,0.86099 c 4.20045,0 7.60568,3.40522 7.60568,7.60568 0,4.200454 -3.40523,7.605684 -7.60568,7.605684 -4.20046,0 -7.60568,-3.40523 -7.60568,-7.605684 0,-4.20046 3.40522,-7.60568 7.60568,-7.60568 z"
       id="path17385"
       style="display:inline;fill:#4000bf;fill-opacity:1;stroke-width:0.705555"
       inkscape:label="Insominia" /><path
       d="m 408.99371,11.594534 c -4.67795,0 -8.4669,3.791056 -8.4669,8.466886 0,3.741672 2.42577,6.914642 5.78925,8.033002 0.42334,0.0797 0.57857,-0.18214 0.57857,-0.40713 0,-0.20108 -0.008,-0.73381 -0.0107,-1.43938 -2.35521,0.51084 -2.85194,-1.13598 -2.85194,-1.13598 -0.38524,-0.97722 -0.94195,-1.23827 -0.94195,-1.23827 -0.76695,-0.52495 0.0592,-0.51436 0.0592,-0.51436 0.85021,0.0592 1.29683,0.87208 1.29683,0.87208 0.75499,1.29473 1.98198,0.92076 2.46599,0.70417 0.0763,-0.54753 0.29423,-0.92079 0.53626,-1.13246 -1.88037,-0.21173 -3.85669,-0.93983 -3.85669,-4.184052 0,-0.9243 0.32809,-1.67927 0.87138,-2.27195 -0.0952,-0.21379 -0.381,-1.07459 0.0741,-2.24091 0,0 0.70912,-0.2272 2.32841,0.86786 0.67736,-0.18838 1.39704,-0.28153 2.11673,-0.28576 0.71968,0.004 1.43937,0.0974 2.11673,0.28576 1.6087,-1.09505 2.31782,-0.86786 2.31782,-0.86786 0.45508,1.16632 0.16934,2.02712 0.0845,2.24091 0.53974,0.59268 0.86783,1.34765 0.86783,2.27195 0,3.252702 -1.97912,3.968852 -3.86301,4.176992 0.29633,0.25415 0.57151,0.77333 0.57151,1.56639 0,1.13315 -0.0107,2.04333 -0.0107,2.31852 0,0.22214 0.14827,0.48684 0.58209,0.40217 3.38748,-1.11057 5.81112,-4.28567 5.81112,-8.021692 0,-4.67583 -3.79103,-8.466886 -8.46689,-8.466886"
       id="path12534"
       style="display:inline;fill:#181717;fill-opacity:1;stroke-width:0.705574"
       inkscape:label="GitHub" /></g></svg>
